<svg width="278" height="278" viewBox="0 0 278 278" fill="none" xmlns="http://www.w3.org/2000/svg">
<g filter="url(#filter0_d_5_4)">
<path d="M274 135C274 209.558 213.558 270 139 270C64.4416 270 4 209.558 4 135C4 60.4416 64.4416 0 139 0C213.558 0 274 60.4416 274 135Z" fill="#BF922C"/>
</g>
<path d="M219.02 71.24H57.91V204.12H219.02V71.24Z" fill="#D7A638"/>
<path opacity="0.2" d="M219.02 71.24H57.91V204.12H219.02V71.24Z" fill="black"/>
<path d="M58.88 182.28H218.06C218.67 182.28 219.255 182.522 219.686 182.954C220.118 183.385 220.36 183.97 220.36 184.58V204.12H56.58V184.57C56.58 184.268 56.6395 183.969 56.7551 183.69C56.8707 183.411 57.0401 183.157 57.2536 182.944C57.4672 182.73 57.7208 182.561 57.9998 182.445C58.2789 182.329 58.5779 182.27 58.88 182.27V182.28Z" fill="#D7A638"/>
<path d="M90.59 104.21H70.42V109.05H90.59V104.21Z" fill="#D7A638"/>
<path d="M213.7 104.21H193.53V109.05H213.7V104.21Z" fill="#D7A638"/>
<path d="M100.68 109.05H80.51V113.89H100.68V109.05Z" fill="#D7A638"/>
<path d="M158.73 172.97H178.9V168.13H158.73V172.97Z" fill="#D7A638"/>
<path d="M148.65 177.8H168.82V172.96H148.65V177.8Z" fill="#D7A638"/>
<path d="M126.5 111.54H74.61V204.11H126.5V111.54Z" fill="white"/>
<path d="M207.42 111.54H134.48V169.82H207.42V111.54Z" fill="white"/>
<path opacity="0.3" d="M137.74 114.81V166.56H204.15V114.81H137.74Z" fill="#D7A638"/>
<path opacity="0.3" d="M122.87 118.02H78.24V197.65H122.87V118.02Z" fill="#D7A638"/>
<path d="M124.19 154.38H76.9V161.28H124.19V154.38Z" fill="white"/>
<path opacity="0.4" d="M105.78 117.08L86.12 198.58H82.6L102.26 117.08H105.78Z" fill="white"/>
<path opacity="0.4" d="M116.13 117.08L96.47 198.58H89.57L109.23 117.08H116.13Z" fill="white"/>
<path opacity="0.4" d="M172.21 114.82L159.73 166.56H155.35L167.83 114.82H172.21Z" fill="white"/>
<path opacity="0.4" d="M193.53 114.82L181.05 166.56H167.28L179.76 114.82H193.53Z" fill="white"/>
<path d="M64.28 77.65H43.01L68.03 56H83.74L64.28 77.65Z" fill="#D7A638"/>
<path d="M85.55 77.65H64.28L83.74 56H99.45L85.55 77.65Z" fill="white"/>
<path d="M106.82 77.65H85.55L99.45 56H115.16L106.82 77.65Z" fill="#D7A638"/>
<path d="M128.09 77.65H106.82L115.16 56H130.87L128.09 77.65Z" fill="white"/>
<path d="M149.36 77.65H128.09L130.87 56H146.58L149.36 77.65Z" fill="#D7A638"/>
<path d="M170.64 77.65H149.36L146.58 56H162.29L170.64 77.65Z" fill="white"/>
<path d="M191.91 77.65H170.64L162.29 56H178L191.91 77.65Z" fill="#D7A638"/>
<path d="M234.45 77.65H213.18L193.71 56H209.43L234.45 77.65Z" fill="#D7A638"/>
<path d="M213.18 77.65H191.91L178 56H193.71L213.18 77.65Z" fill="white"/>
<path d="M53.64 97.48C50.8198 97.48 48.115 96.3604 46.1199 94.3672C44.1248 92.3739 43.0027 89.6702 43 86.85V77.65H64.28V86.85C64.2773 89.6702 63.1552 92.3739 61.1601 94.3672C59.165 96.3604 56.4602 97.48 53.64 97.48Z" fill="#D7A638"/>
<path d="M74.95 97.48C72.1307 97.48 69.427 96.3601 67.4335 94.3665C65.4399 92.373 64.32 89.6693 64.32 86.85V77.65H85.55V86.85C85.55 89.6641 84.4342 92.3633 82.4472 94.356C80.4601 96.3486 77.764 97.4721 74.95 97.48Z" fill="white"/>
<path d="M96.18 97.48C93.3607 97.48 90.657 96.3601 88.6635 94.3665C86.6699 92.373 85.55 89.6693 85.55 86.85V77.65H106.82V86.85C106.82 88.2468 106.545 89.6299 106.01 90.9202C105.475 92.2106 104.691 93.3829 103.703 94.3701C102.715 95.3573 101.542 96.1401 100.251 96.6737C98.9601 97.2073 97.5768 97.4813 96.18 97.48Z" fill="#D7A638"/>
<path d="M106.82 77.65H128.09V86.85C128.09 89.6719 126.969 92.3782 124.974 94.3736C122.978 96.369 120.272 97.49 117.45 97.49C114.628 97.49 111.922 96.369 109.926 94.3736C107.931 92.3782 106.81 89.6719 106.81 86.85V77.65H106.82Z" fill="white"/>
<path d="M138.73 97.48C137.333 97.4813 135.95 97.2073 134.659 96.6737C133.368 96.1401 132.195 95.3573 131.207 94.3701C130.219 93.3829 129.435 92.2106 128.9 90.9202C128.365 89.6299 128.09 88.2468 128.09 86.85V77.65H149.36V86.85C149.36 89.6693 148.24 92.373 146.247 94.3665C144.253 96.3601 141.549 97.48 138.73 97.48Z" fill="#D7A638"/>
<path d="M149.36 77.65H170.63V86.85C170.629 88.2498 170.351 89.6356 169.813 90.9279C169.276 92.2203 168.488 93.3938 167.496 94.3813C166.504 95.3688 165.327 96.1508 164.032 96.6825C162.737 97.2143 161.35 97.4853 159.95 97.48C157.128 97.48 154.422 96.359 152.426 94.3636C150.431 92.3682 149.31 89.6619 149.31 86.84V77.64L149.36 77.65Z" fill="white"/>
<path d="M181.27 97.48C178.451 97.48 175.747 96.3601 173.753 94.3665C171.76 92.373 170.64 89.6693 170.64 86.85V77.65H191.95V86.85C191.95 88.2502 191.673 89.6365 191.136 90.9295C190.599 92.2225 189.811 93.3965 188.819 94.3843C187.827 95.372 186.649 96.154 185.353 96.6852C184.058 97.2165 182.67 97.4866 181.27 97.48Z" fill="#D7A638"/>
<path d="M223.81 97.48C220.991 97.48 218.287 96.3601 216.293 94.3665C214.3 92.373 213.18 89.6693 213.18 86.85V77.65H234.45V86.85C234.45 88.2468 234.175 89.6299 233.64 90.9202C233.105 92.2106 232.321 93.3829 231.333 94.3701C230.345 95.3573 229.172 96.1401 227.881 96.6737C226.59 97.2073 225.207 97.4813 223.81 97.48Z" fill="#D7A638"/>
<path d="M191.95 77.65H213.22V86.85C213.22 89.6719 212.099 92.3782 210.104 94.3736C208.108 96.369 205.402 97.49 202.58 97.49C199.76 97.4873 197.056 96.3652 195.063 94.3701C193.07 92.375 191.95 89.6702 191.95 86.85V77.65Z" fill="white"/>
<path d="M121.48 157.23C123.148 157.23 124.5 155.878 124.5 154.21C124.5 152.542 123.148 151.19 121.48 151.19C119.812 151.19 118.46 152.542 118.46 154.21C118.46 155.878 119.812 157.23 121.48 157.23Z" fill="#D7A638"/>
<path d="M117.804 133.479L85.5941 130.58C84.716 130.501 83.94 131.149 83.861 132.027L82.9718 141.907C82.8928 142.785 83.5406 143.561 84.4187 143.64L116.629 146.539C117.507 146.618 118.283 145.97 118.362 145.092L119.251 135.212C119.33 134.334 118.682 133.558 117.804 133.479Z" fill="#D7A638"/>
<path d="M90.14 136.14L91.33 136.62C91.2312 136.926 91.0713 137.208 90.86 137.45C90.6684 137.659 90.4279 137.817 90.16 137.91C89.8355 138.003 89.496 138.034 89.16 138C88.7416 137.992 88.3294 137.897 87.95 137.72C87.6257 137.524 87.3678 137.235 87.21 136.89C87.0066 136.45 86.9304 135.961 86.99 135.48C87.0095 134.846 87.2792 134.246 87.74 133.81C87.9852 133.623 88.2656 133.486 88.5644 133.409C88.8633 133.332 89.1746 133.315 89.48 133.36C89.9531 133.377 90.4099 133.538 90.79 133.82C91.1194 134.116 91.341 134.514 91.42 134.95L90.17 135.11C90.1494 135.002 90.1123 134.897 90.06 134.8C89.9911 134.691 89.8989 134.599 89.79 134.53C89.6796 134.458 89.5518 134.416 89.42 134.41C89.2763 134.391 89.1303 134.411 88.9968 134.468C88.8633 134.524 88.7471 134.614 88.66 134.73C88.4901 134.989 88.3966 135.29 88.39 135.6C88.3229 135.956 88.372 136.324 88.53 136.65C88.5998 136.75 88.6924 136.832 88.8002 136.89C88.908 136.947 89.0279 136.978 89.15 136.98C89.2595 136.999 89.3719 136.994 89.4791 136.965C89.5864 136.935 89.6857 136.883 89.77 136.81C89.9511 136.624 90.0789 136.392 90.14 136.14Z" fill="white"/>
<path d="M92.27 133.64L93.67 133.77L93.37 137.17L95.54 137.36L95.45 138.47L91.87 138.16L92.27 133.64Z" fill="white"/>
<path d="M96 136.25C96.0615 135.79 96.2517 135.357 96.5488 135.001C96.8458 134.645 97.2375 134.38 97.6787 134.236C98.1199 134.093 98.5926 134.078 99.0422 134.191C99.4919 134.305 99.9002 134.544 100.22 134.88C100.41 135.126 100.549 135.407 100.628 135.708C100.708 136.009 100.725 136.322 100.68 136.63C100.652 137.077 100.522 137.511 100.3 137.9C100.093 138.214 99.8021 138.464 99.46 138.62C99.056 138.789 98.6142 138.848 98.18 138.79C97.7422 138.77 97.3147 138.65 96.93 138.44C96.6084 138.236 96.3517 137.945 96.19 137.6C96.0033 137.176 95.9376 136.709 96 136.25ZM97.39 136.38C97.3288 136.723 97.3889 137.077 97.56 137.38C97.6333 137.488 97.7315 137.577 97.8463 137.64C97.9611 137.703 98.0893 137.737 98.22 137.74C98.3496 137.76 98.4821 137.749 98.607 137.709C98.7319 137.67 98.8459 137.601 98.94 137.51C99.164 137.225 99.2839 136.872 99.28 136.51C99.3377 136.183 99.2775 135.846 99.11 135.56C99.0304 135.456 98.9295 135.37 98.8139 135.308C98.6984 135.245 98.5709 135.209 98.44 135.2C98.3114 135.187 98.1813 135.201 98.0588 135.243C97.9363 135.284 97.8242 135.351 97.73 135.44C97.5192 135.709 97.4 136.038 97.39 136.38Z" fill="white"/>
<path d="M101.12 137.47H102.45C102.452 137.648 102.497 137.823 102.58 137.98C102.646 138.079 102.735 138.161 102.84 138.219C102.944 138.276 103.061 138.307 103.18 138.31C103.344 138.333 103.51 138.298 103.65 138.21C103.702 138.175 103.747 138.13 103.779 138.076C103.812 138.023 103.833 137.962 103.84 137.9C103.845 137.839 103.836 137.777 103.814 137.72C103.791 137.663 103.756 137.611 103.71 137.57C103.507 137.412 103.271 137.303 103.02 137.25C102.554 137.126 102.123 136.897 101.76 136.58C101.643 136.463 101.554 136.322 101.498 136.166C101.443 136.01 101.423 135.844 101.44 135.68C101.46 135.445 101.551 135.222 101.7 135.04C101.868 134.832 102.095 134.679 102.35 134.6C102.718 134.502 103.102 134.475 103.48 134.52C103.945 134.532 104.395 134.686 104.77 134.96C104.916 135.097 105.032 135.263 105.109 135.447C105.187 135.631 105.225 135.83 105.22 136.03H103.9C103.894 135.861 103.83 135.699 103.72 135.57C103.593 135.463 103.435 135.4 103.27 135.39C103.139 135.371 103.005 135.395 102.89 135.46C102.849 135.486 102.814 135.522 102.788 135.563C102.762 135.605 102.746 135.651 102.74 135.7C102.743 135.779 102.775 135.853 102.83 135.91C102.964 136.007 103.118 136.075 103.28 136.11C103.725 136.233 104.155 136.407 104.56 136.63C104.785 136.76 104.969 136.95 105.09 137.18C105.19 137.392 105.232 137.627 105.21 137.86C105.188 138.145 105.08 138.418 104.9 138.64C104.716 138.875 104.465 139.049 104.18 139.14C103.823 139.245 103.449 139.276 103.08 139.23C102.505 139.245 101.946 139.037 101.52 138.65C101.246 138.319 101.104 137.899 101.12 137.47Z" fill="white"/>
<path d="M106.18 134.87L109.92 135.2L109.83 136.2L107.49 136L107.43 136.71L109.6 136.91L109.52 137.83L107.35 137.64L107.27 138.53L109.68 138.74L109.59 139.74L105.78 139.4L106.18 134.87Z" fill="white"/>
<path d="M110.76 135.27L112.83 135.45C113.178 135.468 113.518 135.556 113.83 135.71C114.068 135.834 114.271 136.016 114.42 136.24C114.568 136.471 114.666 136.729 114.71 137C114.751 137.292 114.751 137.588 114.71 137.88C114.692 138.263 114.604 138.639 114.45 138.99C114.325 139.235 114.147 139.45 113.93 139.62C113.738 139.772 113.511 139.875 113.27 139.92C112.994 139.975 112.711 139.992 112.43 139.97L110.36 139.79L110.76 135.27ZM112.06 136.42L111.84 138.89H112.19C112.401 138.921 112.616 138.904 112.82 138.84C112.958 138.776 113.071 138.666 113.14 138.53C113.244 138.282 113.301 138.018 113.31 137.75C113.374 137.409 113.321 137.057 113.16 136.75C113.065 136.645 112.95 136.562 112.82 136.505C112.691 136.448 112.551 136.419 112.41 136.42H112.06Z" fill="white"/>
<path d="M207.44 157.54L133.87 123.84C133.8 123.807 133.74 123.754 133.698 123.689C133.655 123.624 133.632 123.548 133.63 123.47V119.89C133.631 119.822 133.648 119.754 133.681 119.695C133.714 119.635 133.762 119.584 133.819 119.547C133.877 119.511 133.943 119.489 134.011 119.484C134.079 119.479 134.148 119.492 134.21 119.52L207.78 153.22C207.852 153.251 207.913 153.303 207.956 153.369C207.998 153.435 208.021 153.512 208.02 153.59V157.17C208.019 157.238 208.002 157.306 207.969 157.365C207.936 157.425 207.888 157.476 207.831 157.513C207.773 157.549 207.707 157.571 207.639 157.576C207.571 157.581 207.502 157.568 207.44 157.54Z" fill="#D7A638"/>
<path d="M207.47 124.72L133.89 153.28C133.814 153.31 133.748 153.362 133.702 153.43C133.655 153.498 133.63 153.578 133.63 153.66V157.26C133.63 157.327 133.647 157.392 133.678 157.451C133.709 157.51 133.755 157.56 133.81 157.598C133.865 157.635 133.928 157.659 133.995 157.666C134.061 157.673 134.128 157.664 134.19 157.64L207.76 129.08C207.837 129.051 207.904 128.999 207.95 128.931C207.997 128.863 208.021 128.782 208.02 128.7V125.1C208.019 125.035 208.003 124.97 207.972 124.913C207.941 124.855 207.897 124.805 207.843 124.768C207.789 124.731 207.727 124.707 207.662 124.699C207.597 124.69 207.531 124.698 207.47 124.72Z" fill="#D7A638"/>
<defs>
<filter id="filter0_d_5_4" x="0" y="0" width="278" height="278" filterUnits="userSpaceOnUse" color-interpolation-filters="sRGB">
<feFlood flood-opacity="0" result="BackgroundImageFix"/>
<feColorMatrix in="SourceAlpha" type="matrix" values="0 0 0 0 0 0 0 0 0 0 0 0 0 0 0 0 0 0 127 0" result="hardAlpha"/>
<feOffset dy="4"/>
<feGaussianBlur stdDeviation="2"/>
<feComposite in2="hardAlpha" operator="out"/>
<feColorMatrix type="matrix" values="0 0 0 0 0 0 0 0 0 0 0 0 0 0 0 0 0 0 0.25 0"/>
<feBlend mode="normal" in2="BackgroundImageFix" result="effect1_dropShadow_5_4"/>
<feBlend mode="normal" in="SourceGraphic" in2="effect1_dropShadow_5_4" result="shape"/>
</filter>
</defs>
</svg>
